<svg xmlns="http://www.w3.org/2000/svg" viewBox="0 0 1792 1792" width="1792" height="1792" fill="#000000"><g transform="translate(0,1536) scale(1,-1)"><path fill="#000000" d="M512 160V864Q512 878 503.0 887.0Q494 896 480 896H416Q402 896 393.0 887.0Q384 878 384 864V160Q384 146 393.0 137.0Q402 128 416 128H480Q494 128 503.0 137.0Q512 146 512 160ZM768 160V864Q768 878 759.0 887.0Q750 896 736 896H672Q658 896 649.0 887.0Q640 878 640 864V160Q640 146 649.0 137.0Q658 128 672 128H736Q750 128 759.0 137.0Q768 146 768 160ZM1024 160V864Q1024 878 1015.0 887.0Q1006 896 992 896H928Q914 896 905.0 887.0Q896 878 896 864V160Q896 146 905.0 137.0Q914 128 928 128H992Q1006 128 1015.0 137.0Q1024 146 1024 160ZM480 1152H928L880 1269Q873 1278 863 1280H546Q536 1278 529 1269ZM1408 1120V1056Q1408 1042 1399.0 1033.0Q1390 1024 1376 1024H1280V76Q1280 -7 1233.0 -67.5Q1186 -128 1120 -128H288Q222 -128 175.0 -69.5Q128 -11 128 72V1024H32Q18 1024 9.0 1033.0Q0 1042 0 1056V1120Q0 1134 9.0 1143.0Q18 1152 32 1152H341L411 1319Q426 1356 465.0 1382.0Q504 1408 544 1408H864Q904 1408 943.0 1382.0Q982 1356 997 1319L1067 1152H1376Q1390 1152 1399.0 1143.0Q1408 1134 1408 1120Z"/></g></svg>